HIERARCHY
ROOT Hips
{
  OFFSET 2.26061 22.2878 23.7974
  CHANNELS 6 Xposition Yposition Zposition Zrotation Xrotation Yrotation
  JOINT LeftUpLeg
  {
    OFFSET 8.64259 1.95398 -2.38835
    CHANNELS 3 Zrotation Xrotation Yrotation
    JOINT LeftLeg
    {
      OFFSET 43.7702 0 0
      CHANNELS 3 Zrotation Xrotation Yrotation
      JOINT LeftFoot
      {
        OFFSET 40.6238 0 0
        CHANNELS 3 Zrotation Xrotation Yrotation
        JOINT LeftToeBase
        {
          OFFSET 12.7242 0 0
          CHANNELS 3 Zrotation Xrotation Yrotation
          End Site
          {
            OFFSET 0 0 0
          }
        }
      }
    }
  }
  JOINT RightUpLeg
  {
    OFFSET -8.2249 1.95398 -2.59336
    CHANNELS 3 Zrotation Xrotation Yrotation
    JOINT RightLeg
    {
      OFFSET 43.5653 0 0
      CHANNELS 3 Zrotation Xrotation Yrotation
      JOINT RightFoot
      {
        OFFSET 40.6238 0 0
        CHANNELS 3 Zrotation Xrotation Yrotation
        JOINT RightToeBase
        {
          OFFSET 12.7242 0 0
          CHANNELS 3 Zrotation Xrotation Yrotation
          End Site
          {
            OFFSET 0 0 0
          }
        }
      }
    }
  }
  JOINT Spine
  {
    OFFSET 0.165834 0.87714 6.61349
    CHANNELS 3 Zrotation Xrotation Yrotation
    JOINT Spine1
    {
      OFFSET 7.38963 1.71661e-005 0
      CHANNELS 3 Zrotation Xrotation Yrotation
      JOINT Spine2
      {
        OFFSET 11.9445 1.14441e-005 0
        CHANNELS 3 Zrotation Xrotation Yrotation
        JOINT Spine3
        {
          OFFSET 14.7254 4.19617e-005 0
          CHANNELS 3 Zrotation Xrotation Yrotation
          JOINT Spine4
          {
            OFFSET 10.9679 0 0
            CHANNELS 3 Zrotation Xrotation Yrotation
            JOINT RightShoulder
            {
              OFFSET 2.46616 -1.6653 3.69651
              CHANNELS 3 Zrotation Xrotation Yrotation
              JOINT RightArm
              {
                OFFSET 13.0012 0 0
                CHANNELS 3 Zrotation Xrotation Yrotation
                JOINT RightForeArm
                {
                  OFFSET 28.7848 1.52588e-005 0
                  CHANNELS 3 Zrotation Xrotation Yrotation
                  JOINT RightHand
                  {
                    OFFSET 26.5688 1.52588e-005 0
                    CHANNELS 3 Zrotation Xrotation Yrotation
                    End Site
                    {
                      OFFSET 0 0 0
                    }
                  }
                }
              }
            }
            JOINT LeftShoulder
            {
              OFFSET 2.38034 -1.29275 -3.7523
              CHANNELS 3 Zrotation Xrotation Yrotation
              JOINT LeftArm
              {
                OFFSET 16.3182 6.10351e-005 0
                CHANNELS 3 Zrotation Xrotation Yrotation
                JOINT LeftForeArm
                {
                  OFFSET 27.0901 0 0
                  CHANNELS 3 Zrotation Xrotation Yrotation
                  JOINT LeftHand
                  {
                    OFFSET 24.5451 1.52588e-005 0
                    CHANNELS 3 Zrotation Xrotation Yrotation
                    End Site
                    {
                      OFFSET 0 0 0
                    }
                  }
                }
              }
            }
            JOINT Neck
            {
              OFFSET 5.0226 -0.0266342 0
              CHANNELS 3 Zrotation Xrotation Yrotation
              JOINT Head
              {
                OFFSET 6.69363 2.86102e-005 0
                CHANNELS 3 Zrotation Xrotation Yrotation
                End Site
                {
                  OFFSET 0 0 0
                }
              }
            }
          }
        }
      }
    }
  }
}
MOTION
Frames:	7
Frame Time:	0.0416667
-63.8144 49.1601 15.0026 42.0356 3.24929 83.8108 -172.101 36.3647 97.1711 -82.7279 14.6609 0.897964 54.4942 2.70543 6.89322 54.0251 27.2146 25.2361 151.56 74.586 120.225 -125.996 -0.753527 -3.23303 57.9228 -3.20527 -3.69644 57.9852 3.93253 12.6179 -0.209684 9.58889 -91.1125 7.68267 -0.902421 -2.14916 -3.98968 -0.996116 -2.10738 -26.5109 -0.214973 -2.32089 -6.49824 -0.214985 -2.32092 89.8892 -14.0895 -115.081 -9.09224 31.4248 -29.1321 -22.1751 -22.5443 -52.7901 -37.1011 -5.04786 11.5071 -102.206 -29.9103 50.9507 45.0729 -18.6579 -17.1777 -0.0138045 3.45842 -34.6131 25.911 1.8239 3.30964 17.305 -12.8184 17.4404 19.2819 -21.4419 -22.6161 
-65.0455 49.5844 16.9331 45.6225 6.116 81.9659 -175.479 36.1304 97.5685 -84.6503 16.803 1.67213 52.0904 0.0521567 3.88406 50.5007 23.8792 27.7675 149.848 72.7199 119.752 -126.592 0.62707 -3.34828 58.5326 -3.93043 -4.15542 58.1016 3.08708 8.26736 -0.0907515 9.60879 -91.1842 7.64363 -0.695692 -2.30163 -4.02913 -0.796297 -2.26883 -26.5479 0.0279831 -2.40426 -6.53526 0.0279716 -2.40426 89.1427 -15.1232 -116.264 -9.75062 31.738 -25.4133 -24.7061 -23.6772 -53.2241 -34.816 -4.74861 11.663 -104.546 -33.1272 48.926 41.2465 -16.378 -18.6224 2.88617 4.75301 -43.6015 26.8772 2.01342 3.65853 16.7742 -13.8848 22.548 17.1517 -23.6441 -24.9307 
-66.4391 49.9719 18.3493 49.3629 9.35239 79.5836 -178.764 37.5857 97.5219 -87.7875 17.7969 2.23103 48.9502 -2.60627 0.925495 48.1783 20.2177 24.6746 152.659 72.3803 114.183 -127.672 0.743406 -3.37302 57.8355 -3.96008 -4.26876 57.387 3.85662 12.7339 0.0470711 9.6165 -91.2622 7.6293 -0.45432 -2.46785 -4.04387 -0.562445 -2.44548 -26.5603 0.308126 -2.49034 -6.54767 0.308143 -2.49031 88.4673 -15.6553 -117.563 -12.3975 31.5149 -20.1527 -22.935 -23.452 -50.1223 -32.664 -4.40566 11.3234 -106.686 -36.3748 47.4201 33.334 -10.7551 -17.6253 8.13611 4.78582 -56.9644 26.1896 2.10925 4.25663 17.1515 -15.4864 27.6485 14.2164 -26.2464 -27.3761 
-68.0515 50.3687 19.7262 53.7023 13.0616 77.1952 179.909 41.2549 98.066 -92.8831 17.5936 2.227 47.9033 -3.04889 2.2106 48.8783 19.153 17.1252 153.021 71.4223 110.328 -128.359 -0.129474 -3.49822 56.3544 -3.46771 -4.10433 55.3118 3.62295 13.3672 0.276426 9.54235 -91.241 7.78271 0.0110916 -2.45055 -3.89054 -0.0967301 -2.44867 -26.4085 0.746875 -2.33405 -6.39579 0.746867 -2.33406 87.5633 -19.7463 -116.978 -17.241 30.749 -15.9759 -21.6363 -25.1661 -46.6854 -27.3634 -4.18473 12.9761 -110.127 -40.1238 44.3728 26.7364 -0.950332 -13.4502 13.6991 3.31059 -68.6602 22.7475 1.83445 4.21239 16.1755 -17.9466 28.2689 12.6498 -28.0122 -26.9347 
-69.8577 50.9734 21.247 58.5624 17.6069 74.4445 -179.222 46.719 97.9171 -96.9572 10.4931 2.2862 50.7381 0.785933 6.72916 49.8295 19.1225 12.8772 149.316 69.8939 109.033 -128.203 1.58752 -3.80902 54.0934 -3.30921 -4.15762 55.9753 3.86453 14.0985 0.326929 9.59991 -91.0898 7.67091 0.178957 -2.16106 -4.00184 0.0836833 -2.16683 -26.5242 0.82005 -2.00747 -6.51154 0.820027 -2.00749 87.816 -21.2479 -115.526 -20.5687 28.5676 -12.1975 -18.8174 -28.0056 -41.844 -22.8888 -3.25375 11.4938 -109.81 -42.4556 46.1788 19.9509 9.2124 -10.7049 17.2102 2.85923 -72.0494 17.4297 1.31913 3.72084 16.2776 -20.0318 28.5109 11.1823 -29.6062 -26.5552 
-71.6432 51.6113 22.8468 63.8922 20.3292 71.5521 -175.821 52.0109 97.1223 -99.6933 6.12173 2.27776 54.6546 4.11436 8.71616 48.147 17.8833 14.7215 148.959 68.2788 106.187 -128.298 0.746013 -3.95306 53.1327 -3.19828 -4.37603 57.0258 4.19653 14.8334 0.409341 9.75113 -90.8257 7.37223 0.460485 -1.64995 -4.29971 0.387464 -1.66862 -26.8288 0.935029 -1.43536 -6.81617 0.935044 -1.43534 88.206 -24.6975 -112.775 -19.845 29.1882 -10.3665 -18.6487 -22.8776 -45.3183 -12.3226 -1.87948 10.2567 -109.679 -44.0751 47.2636 13.2041 16.9016 -4.98507 16.174 4.11435 -69.3772 18.7275 1.59439 4.66857 10.5928 -22.9381 25.0856 14.7976 -31.0002 -25.1337 
-73.2453 52.2456 24.0307 68.6328 23.0432 69.635 -171.499 57.8692 95.306 -101.759 3.66713 2.28928 59.0154 7.53578 9.00735 48.9875 18.2116 12.417 147.36 66.6125 104.616 -128.411 -0.782084 -4.04213 52.8189 -3.07823 -4.6955 56.9214 3.70379 12.3362 0.414572 9.87934 -90.571 7.11677 0.582385 -1.15156 -4.55459 0.531135 -1.17608 -27.0879 0.901539 -0.923305 -7.07527 0.90154 -0.923321 88.5426 -29.5584 -109.823 -17.9962 29.7111 -11.1457 -17.8107 -19.9132 -46.1292 -7.99637 -1.20735 7.98779 -108.789 -44.1794 48.6101 5.64613 20.0682 2.66034 15.407 6.74794 -65.1387 21.5087 2.28457 6.82683 4.37266 -25.1837 19.1299 18.8 -31.4282 -22.236 
